<?xml version="1.0" encoding="iso-8859-1"?>
<!-- Generator: Adobe Illustrator 19.0.0, SVG Export Plug-In . SVG Version: 6.00 Build 0)  -->
<svg version="1.1" id="Capa_1" xmlns="http://www.w3.org/2000/svg" xmlns:xlink="http://www.w3.org/1999/xlink" x="0px" y="0px"
	 viewBox="0 0 431.76 431.76" style="enable-background:new 0 0 431.76 431.76;" xml:space="preserve">
<path style="fill:#FFE05F;" d="M164.44,344.88H267.4v37.04H164.44V344.88z"/>
<path style="fill:#FFA757;" d="M164.44,344.88V296c-32.886-21.955-52.845-58.702-53.36-98.24
	c-1.599-57.902,44.042-106.137,101.944-107.736c57.902-1.599,106.137,44.042,107.736,101.944c0.053,1.93,0.053,3.862,0,5.792
	c-0.533,39.553-20.524,76.303-53.44,98.24v48.64L164.44,344.88z"/>
<path style="fill:#FFE05F;" d="M192.6,423.76l-28.16-41.92h102.88l-28.16,41.92H192.6z"/>
<g>
	<path style="fill:#3F342B;" d="M215.88,85.12C153.556,85.164,103.044,135.676,103,198c0.557,40.682,20.35,78.696,53.36,102.48V382
		c0.027,0.932,0.216,1.853,0.56,2.72v0.64c0.138,0.33,0.299,0.651,0.48,0.96l28.16,41.92c1.49,2.205,3.979,3.524,6.64,3.52h46.56
		c2.661,0.004,5.15-1.315,6.64-3.52l28.16-41.92c0.181-0.309,0.342-0.63,0.48-0.96v-0.64c0.344-0.867,0.533-1.788,0.56-2.72v-81.52
		c33.01-23.784,52.803-61.798,53.36-102.48C327.918,135.987,277.891,85.603,215.88,85.12z M234.92,416h-38.08l-17.44-25.92h72.88
		L234.92,416z M259.4,374.08h-86.96v-21.2h86.88L259.4,374.08z M263,289.76c-2.259,1.487-3.613,4.015-3.6,6.72v40.64h-86.96V296
		c0.013-2.705-1.341-5.233-3.6-6.72c-30.628-20.467-49.233-54.687-49.76-91.52c1.537-53.483,46.141-95.594,99.624-94.056
		c51.322,1.475,92.581,42.734,94.056,94.056c-0.448,36.919-19.063,71.245-49.76,91.76L263,289.76z"/>
	<path style="fill:#3F342B;" d="M219.08,121.36c-4.418,0-8,3.582-8,8s3.582,8,8,8c33.251,0.044,60.196,26.989,60.24,60.24
		c0,4.418,3.582,8,8,8s8-3.582,8-8C295.276,155.512,261.168,121.404,219.08,121.36L219.08,121.36z"/>
	<path style="fill:#3F342B;" d="M89.48,197.6c0-4.418-3.582-8-8-8h-57.6c-4.418,0-8,3.582-8,8s3.582,8,8,8h57.6
		C85.898,205.6,89.48,202.018,89.48,197.6z"/>
	<path style="fill:#3F342B;" d="M407.88,189.6h-57.6c-4.418,0-8,3.582-8,8s3.582,8,8,8h57.6c4.418,0,8-3.582,8-8
		S412.298,189.6,407.88,189.6z"/>
	<path style="fill:#3F342B;" d="M115.16,286.96L74.28,328c-3.356,2.874-3.747,7.924-0.873,11.28s7.924,3.747,11.28,0.873
		c0.313-0.268,0.605-0.56,0.873-0.873l40.88-40.88c3.356-2.874,3.747-7.924,0.873-11.28c-2.874-3.356-7.924-3.747-11.28-0.873
		c-0.313,0.268-0.605,0.56-0.873,0.873V286.96z"/>
	<path style="fill:#3F342B;" d="M310.92,110.48c2.126,0.012,4.17-0.823,5.68-2.32l40.88-40.88c2.874-3.356,2.483-8.406-0.873-11.28
		c-2.995-2.565-7.412-2.565-10.407,0l-40.88,40.88c-3.137,3.111-3.158,8.177-0.047,11.314c1.513,1.526,3.577,2.379,5.727,2.366
		L310.92,110.48z"/>
	<path style="fill:#3F342B;" d="M316.6,286.96c-2.874-3.356-7.924-3.747-11.28-0.873s-3.747,7.924-0.873,11.28
		c0.268,0.313,0.56,0.605,0.873,0.873l40.88,40.88c2.626,3.553,7.636,4.304,11.189,1.678c3.553-2.626,4.304-7.636,1.678-11.189
		c-0.45-0.609-0.984-1.151-1.587-1.609L316.6,286.96z"/>
	<path style="fill:#3F342B;" d="M115.16,108.16c3.356,2.874,8.406,2.483,11.28-0.873c2.565-2.995,2.565-7.412,0-10.407L85.56,56
		c-3.356-2.874-8.406-2.483-11.28,0.873c-2.565,2.995-2.565,7.412,0,10.407L115.16,108.16z"/>
	<path style="fill:#3F342B;" d="M215.88,74.08c4.418,0,8-3.582,8-8V8c0-4.418-3.582-8-8-8s-8,3.582-8,8v57.84
		c-0.133,4.416,3.34,8.104,7.756,8.236C215.718,74.079,215.799,74.08,215.88,74.08z"/>
</g>
<g>
</g>
<g>
</g>
<g>
</g>
<g>
</g>
<g>
</g>
<g>
</g>
<g>
</g>
<g>
</g>
<g>
</g>
<g>
</g>
<g>
</g>
<g>
</g>
<g>
</g>
<g>
</g>
<g>
</g>
</svg>
