<svg height="512pt" viewBox="-53 0 512 512" width="512pt" xmlns="http://www.w3.org/2000/svg"><path d="m199.78125 360.6875v20.902344h16.808594v-20.902344c3.402344-2.558594 5.609375-6.613281 5.609375-11.195312 0-7.742188-6.273438-14.015626-14.015625-14.015626-7.738282 0-14.011719 6.273438-14.011719 14.015626 0 4.582031 2.207031 8.636718 5.609375 11.195312zm0 0"/><path d="m91.273438 111.957031c10.804687-3.230469 18.703124-13.253906 18.703124-25.09375 0-14.441406-11.746093-26.191406-26.1875-26.191406-14.441406 0-26.1875 11.75-26.1875 26.191406 0 11.839844 7.898438 21.863281 18.703126 25.09375v85.257813l-42.292969 26.542968c-2.183594 1.371094-3.507813 3.765626-3.507813 6.339844v57.585938c0 .03125.007813.0625.007813.09375 0 .035156-.007813.066406-.007813.097656v28.507812c0 4.132813 3.351563 7.484376 7.484375 7.484376 4.132813 0 7.480469-3.351563 7.480469-7.484376v-24.367187l162.71875-102.109375 162.714844 102.109375v33.394531c0 4.132813 3.351562 7.484375 7.484375 7.484375 4.132812 0 7.480469-3.351562 7.480469-7.484375v-37.53125c0-.035156-.003907-.066406-.003907-.101562 0-.03125.003907-.058594.003907-.09375v-57.585938c0-2.574218-1.324219-4.96875-3.503907-6.339844l-170.199219-106.804687c-2.433593-1.527344-5.523437-1.527344-7.957031 0l-112.933593 70.871094zm-18.707032-25.09375c0-6.1875 5.035156-11.222656 11.222656-11.222656s11.222657 5.035156 11.222657 11.222656-5.035157 11.222657-11.222657 11.222657-11.222656-5.035157-11.222656-11.222657zm135.617188 45.261719 162.71875 102.109375v39.917969l-158.738282-99.609375c-1.21875-.765625-2.597656-1.144531-3.980468-1.144531-1.378906 0-2.761719.378906-3.976563 1.144531l-158.738281 99.609375v-39.917969zm0 0"/><path d="m398.832031 453.179688h-12.964843v-97.839844c0-4.132813-3.351563-7.480469-7.484376-7.480469-4.132812 0-7.480468 3.347656-7.480468 7.480469v2.71875h-13c-3.226563-10.804688-13.25-18.707032-25.09375-18.707032-14.4375 0-26.1875 11.75-26.1875 26.1875 0 14.441407 11.75 26.191407 26.1875 26.191407 11.84375 0 21.867187-7.902344 25.09375-18.707031h13v80.15625h-325.433594v-80.15625h13.992188c3.226562 10.804687 13.25 18.707031 25.09375 18.707031 14.4375 0 26.1875-11.75 26.1875-26.191407 0-14.4375-11.75-26.1875-26.1875-26.1875-11.84375 0-21.867188 7.902344-25.09375 18.707032h-13.992188v-3.019532c0-4.132812-3.347656-7.480468-7.480469-7.480468-4.132812 0-7.484375 3.347656-7.484375 7.480468v98.140626h-12.964844c-4.132812 0-7.480468 3.347656-7.480468 7.480468v43.855469c0 4.132813 3.347656 7.484375 7.480468 7.484375h381.292969c4.132813 0 7.480469-3.351562 7.480469-7.484375v-43.855469c0-4.132812-3.347656-7.480468-7.480469-7.480468zm-66.023437-76.417969c-6.1875 0-11.21875-5.03125-11.21875-11.222657 0-6.1875 5.03125-11.222656 11.21875-11.222656 6.191406 0 11.226562 5.035156 11.226562 11.222656-.003906 6.191407-5.035156 11.222657-11.226562 11.222657zm-248.253906-22.445313c6.1875 0 11.222656 5.035156 11.222656 11.222656 0 6.191407-5.035156 11.222657-11.222656 11.222657s-11.222657-5.03125-11.222657-11.222657c-.003906-6.1875 5.03125-11.222656 11.222657-11.222656zm306.792968 142.71875h-366.324218v-28.890625h366.324218zm0 0"/><path d="m149.734375 335.625v48.761719c0 22.332031 18.164063 40.496093 40.496094 40.496093h35.914062c22.328125 0 40.492188-18.164062 40.492188-40.496093v-48.761719c0-23.957031-19.488281-43.441406-43.441407-43.441406h-30.019531c-5.078125 0-9.949219.882812-14.480469 2.488281v-16.015625c0-16.261719 13.230469-29.488281 29.488282-29.488281 16.261718 0 29.492187 13.230469 29.492187 29.488281 0 4.132812 3.347657 7.484375 7.480469 7.484375s7.484375-3.351563 7.484375-7.484375c0-24.511719-19.941406-44.457031-44.457031-44.457031-24.511719 0-44.453125 19.945312-44.453125 44.457031v20.421875c0 1.367187.371093 2.640625 1.007812 3.746094-9.179687 7.96875-15.003906 19.710937-15.003906 32.800781zm14.964844 0c0-15.703125 12.773437-28.476562 28.476562-28.476562h30.019531c15.703126 0 28.476563 12.773437 28.476563 28.476562v48.761719c0 14.078125-11.453125 25.53125-25.53125 25.53125h-35.914063c-14.074218 0-25.527343-11.453125-25.527343-25.53125zm0 0"/><path d="m39.953125 91.273438c4.132813 0 7.480469-3.351563 7.480469-7.484376 0-20.046874 16.308594-36.355468 36.355468-36.355468 20.046876 0 36.355469 16.308594 36.355469 36.355468 0 4.132813 3.347657 7.484376 7.480469 7.484376s7.484375-3.351563 7.484375-7.484376c0-28.296874-23.023437-51.320312-51.320313-51.320312-28.300781 0-51.320312 23.019531-51.320312 51.320312 0 4.132813 3.347656 7.484376 7.484375 7.484376zm0 0"/><path d="m14.964844 83.789062c0-37.949218 30.875-68.824218 68.824218-68.824218 37.949219 0 68.824219 30.875 68.824219 68.824218 0 4.132813 3.351563 7.480469 7.484375 7.480469 4.132813 0 7.480469-3.347656 7.480469-7.480469 0-46.203124-37.585937-83.789062-83.789063-83.789062-46.203124 0-83.789062 37.585938-83.789062 83.789062 0 4.132813 3.351562 7.480469 7.484375 7.480469s7.480469-3.347656 7.480469-7.480469zm0 0"/></svg>