<svg height="512pt" viewBox="-51 0 512 512" width="512pt" xmlns="http://www.w3.org/2000/svg"><path d="m401.695312 1.730469c-4.164062 0-7.535156 3.375-7.535156 7.535156v109.652344h-283.949218c-4.160157 0-7.535157 3.375-7.535157 7.535156 0 4.164063 3.375 7.539063 7.535157 7.539063h283.949218v27.644531h-379.085937v-27.644531h64.988281c4.164062 0 7.539062-3.375 7.539062-7.539063 0-4.160156-3.375-7.535156-7.539062-7.535156h-64.988281v-109.652344c0-4.160156-3.375-7.535156-7.539063-7.535156-4.160156 0-7.535156 3.375-7.535156 7.535156v288.070313c0 4.164062 3.375 7.539062 7.535156 7.539062h19.601563v87.628906c0 4.164063 3.375 7.535156 7.535156 7.535156 4.164063 0 7.539063-3.371093 7.539063-7.535156v-87.628906h22.105468v94.832031c0 4.160157 3.375 7.535157 7.539063 7.535157h116.75c4.160156 0 7.535156-3.375 7.535156-7.535157v-94.832031h22.523437v94.832031c0 4.160157 3.375 7.535157 7.539063 7.535157h45.414063.007812.007812 71.316407c4.164062 0 7.539062-3.375 7.539062-7.535157v-94.832031h16.535157v124.476562h-324.8125v-6.699218c0-4.164063-3.375-7.539063-7.539063-7.539063-4.160156 0-7.535156 3.375-7.535156 7.539063v6.699218h-19.601563c-4.160156 0-7.535156 3.375-7.535156 7.539063v67.574219c0 4.160156 3.375 7.535156 7.535156 7.535156h394.160156c4.164063 0 7.539063-3.375 7.539063-7.535156v-67.574219c0-4.164063-3.375-7.539063-7.539063-7.539063h-19.597656v-124.476562h19.597656c4.164063 0 7.539063-3.375 7.539063-7.535156v-288.074219c0-4.160156-3.375-7.535156-7.539063-7.535156zm-7.535156 495.195312h-379.085937v-52.5h379.085937zm-379.085937-277.492187h379.085937v27.648437h-379.085937zm379.085937-42.722656v27.648437h-379.085937v-27.648437zm-286.289062 128.164062-28.480469 21.660156v-21.660156zm-28.480469 40.597656 53.378906-40.597656h21.765625l-75.144531 55.65625zm101.675781 46.695313h-101.675781v-12.878907l100.472656-74.414062h1.203125zm113.238282 0 41.109374-30.707031v30.707031zm41.109374-49.523438-66.300781 49.523438h-35.375v-87.292969h101.675781zm58.746094-52.84375h-379.085937v-27.644531h379.085937zm0 0"/><path d="m194.792969 94.785156c1.429687 1.839844 3.628906 2.917969 5.957031 2.917969s4.523438-1.078125 5.953125-2.917969l38.398437-49.476562c1.765626-2.273438 2.078126-5.351563.8125-7.933594-1.261718-2.585938-3.890624-4.222656-6.765624-4.222656h-10.796876v-25.617188c0-4.160156-3.375-7.535156-7.535156-7.535156h-40.132812c-4.160156 0-7.535156 3.375-7.535156 7.535156v25.617188h-10.796876c-2.878906 0-5.503906 1.636718-6.769531 4.21875-1.265625 2.585937-.949219 5.664062.816407 7.9375zm-14.109375-46.558594c4.164062 0 7.535156-3.375 7.535156-7.539062v-25.613281h25.058594v25.613281c0 4.164062 3.371094 7.539062 7.535156 7.539062h2.945312l-23.007812 29.644532-23.007812-29.644532zm0 0"/></svg>